<svg xmlns="http://www.w3.org/2000/svg" viewBox="0 0 420 250" role="img" aria-label="Mass running down an incline into a shock absorber">
<g fill="none" stroke="#2f3339" stroke-width="2.5" stroke-linecap="round">
  <path d="M28 206 L44 194 M28 190 L44 178 M28 174 L44 162" stroke="#8d9198" stroke-width="2"/>
  <path d="M48 200 L262 96"/>
  <path d="M48 200 L262 200" stroke="#8d9198" stroke-dasharray="5 5" stroke-width="1.5"/>
  <path d="M262 96 L262 200" stroke="#8d9198" stroke-dasharray="5 5" stroke-width="1.5"/>
  <path d="M76 200 a30 30 0 0 0 16-25" stroke="#F57C00" stroke-width="2"/>
</g>
<text x="98" y="196" fill="#F57C00" font-family="Poppins,sans-serif" font-size="16" font-style="italic">&#946;</text>
<g transform="rotate(-25.9 158 136)">
  <rect x="122" y="108" width="72" height="46" rx="3" fill="#d6d9dd" stroke="#2f3339" stroke-width="2.5"/>
  <text x="158" y="138" fill="#2f3339" font-family="Poppins,sans-serif" font-size="18" text-anchor="middle">M</text>
</g>
<defs><marker id="i6a" markerWidth="10" markerHeight="10" refX="9" refY="5" orient="auto">
  <path d="M0 0 L10 5 L0 10 z" fill="#2f3339"/></marker></defs>
<path d="M206 152 l30 -15" stroke="#2f3339" stroke-width="2.5" fill="none" marker-end="url(#i6a)"/>
<text x="222" y="126" fill="#2f3339" font-family="Poppins,sans-serif" font-size="15" font-style="italic">v</text>
<g transform="translate(266 172)">
  <rect x="-14" y="-4" width="14" height="40" rx="2" fill="#8d9198" stroke="#2f3339" stroke-width="2"/>
  <rect x="0" y="8" width="56" height="18" rx="3" fill="#4a4d52" stroke="#2f3339" stroke-width="2"/>
  <rect x="56" y="11" width="30" height="12" rx="2" fill="#c9ccd1" stroke="#2f3339" stroke-width="2"/>
  <rect x="86" y="6" width="10" height="22" rx="2" fill="#c0392b" stroke="#2f3339" stroke-width="1.5"/>
</g>
<path d="M262 150 L262 232" stroke="#4a4d52" stroke-width="7" stroke-linecap="round"/>
<g stroke="#F57C00" stroke-width="2">
  <path d="M352 180 L352 196 M346 180 L358 180 M346 196 L358 196"/>
</g>
<text x="364" y="192" fill="#F57C00" font-family="Poppins,sans-serif" font-size="14" font-style="italic">S</text>
</svg>
