<svg xmlns="http://www.w3.org/2000/svg" viewBox="4 18 232 96" stroke-linejoin="round"><title>AD — Hydraulic · spring return · adjustable damping</title><defs>
<linearGradient id="chrome" x1="0" y1="0" x2="0" y2="1"><stop offset="0" stop-color="#f4f6f8"/><stop offset=".3" stop-color="#c3cad2"/><stop offset=".5" stop-color="#ffffff"/><stop offset=".8" stop-color="#8f99a4"/><stop offset="1" stop-color="#5f6a75"/></linearGradient>
<linearGradient id="black" x1="0" y1="0" x2="0" y2="1"><stop offset="0" stop-color="#6b6f75"/><stop offset=".45" stop-color="#2a2d31"/><stop offset="1" stop-color="#0d0e10"/></linearGradient>
<linearGradient id="yellow" x1="0" y1="0" x2="0" y2="1"><stop offset="0" stop-color="#ffe680"/><stop offset=".45" stop-color="#f2c000"/><stop offset="1" stop-color="#9c7600"/></linearGradient>
<linearGradient id="blue" x1="0" y1="0" x2="0" y2="1"><stop offset="0" stop-color="#8dbbff"/><stop offset=".45" stop-color="#1f6fe0"/><stop offset="1" stop-color="#0b3a86"/></linearGradient>
<linearGradient id="red" x1="0" y1="0" x2="0" y2="1"><stop offset="0" stop-color="#ff8a80"/><stop offset=".45" stop-color="#d81c1c"/><stop offset="1" stop-color="#761010"/></linearGradient>
<linearGradient id="steel" x1="0" y1="0" x2="0" y2="1"><stop offset="0" stop-color="#e3e8ee"/><stop offset=".5" stop-color="#a6b0bb"/><stop offset="1" stop-color="#5b6570"/></linearGradient>
<linearGradient id="pu" x1="0" y1="0" x2="0" y2="1"><stop offset="0" stop-color="#555"/><stop offset=".5" stop-color="#1b1b1b"/><stop offset="1" stop-color="#000"/></linearGradient>
</defs><rect x="28.0" y="55.0" width="12.0" height="22.0" rx="2" fill="url(#steel)" stroke="#23272c" stroke-width="1.1" /><line x1="31" y1="56" x2="31" y2="76" stroke="#6d7680" stroke-width=".6"/><line x1="33" y1="56" x2="33" y2="76" stroke="#6d7680" stroke-width=".6"/><line x1="35" y1="56" x2="35" y2="76" stroke="#6d7680" stroke-width=".6"/><line x1="37" y1="56" x2="37" y2="76" stroke="#6d7680" stroke-width=".6"/><line x1="39" y1="56" x2="39" y2="76" stroke="#6d7680" stroke-width=".6"/><rect x="40.0" y="51.0" width="104.0" height="30.0" rx="2" fill="url(#black)" stroke="#23272c" stroke-width="1.1" /><line x1="43.0" y1="52.0" x2="41.0" y2="80.0" stroke="#8a8f96" stroke-width=".7"/><line x1="47.0" y1="52.0" x2="45.0" y2="80.0" stroke="#8a8f96" stroke-width=".7"/><line x1="51.0" y1="52.0" x2="49.0" y2="80.0" stroke="#8a8f96" stroke-width=".7"/><line x1="55.0" y1="52.0" x2="53.0" y2="80.0" stroke="#8a8f96" stroke-width=".7"/><line x1="59.0" y1="52.0" x2="57.0" y2="80.0" stroke="#8a8f96" stroke-width=".7"/><line x1="63.0" y1="52.0" x2="61.0" y2="80.0" stroke="#8a8f96" stroke-width=".7"/><line x1="67.0" y1="52.0" x2="65.0" y2="80.0" stroke="#8a8f96" stroke-width=".7"/><line x1="71.0" y1="52.0" x2="69.0" y2="80.0" stroke="#8a8f96" stroke-width=".7"/><line x1="75.0" y1="52.0" x2="73.0" y2="80.0" stroke="#8a8f96" stroke-width=".7"/><line x1="79.0" y1="52.0" x2="77.0" y2="80.0" stroke="#8a8f96" stroke-width=".7"/><line x1="83.0" y1="52.0" x2="81.0" y2="80.0" stroke="#8a8f96" stroke-width=".7"/><line x1="87.0" y1="52.0" x2="85.0" y2="80.0" stroke="#8a8f96" stroke-width=".7"/><line x1="91.0" y1="52.0" x2="89.0" y2="80.0" stroke="#8a8f96" stroke-width=".7"/><line x1="95.0" y1="52.0" x2="93.0" y2="80.0" stroke="#8a8f96" stroke-width=".7"/><line x1="99.0" y1="52.0" x2="97.0" y2="80.0" stroke="#8a8f96" stroke-width=".7"/><line x1="103.0" y1="52.0" x2="101.0" y2="80.0" stroke="#8a8f96" stroke-width=".7"/><line x1="107.0" y1="52.0" x2="105.0" y2="80.0" stroke="#8a8f96" stroke-width=".7"/><line x1="111.0" y1="52.0" x2="109.0" y2="80.0" stroke="#8a8f96" stroke-width=".7"/><line x1="115.0" y1="52.0" x2="113.0" y2="80.0" stroke="#8a8f96" stroke-width=".7"/><line x1="119.0" y1="52.0" x2="117.0" y2="80.0" stroke="#8a8f96" stroke-width=".7"/><line x1="123.0" y1="52.0" x2="121.0" y2="80.0" stroke="#8a8f96" stroke-width=".7"/><line x1="127.0" y1="52.0" x2="125.0" y2="80.0" stroke="#8a8f96" stroke-width=".7"/><line x1="131.0" y1="52.0" x2="129.0" y2="80.0" stroke="#8a8f96" stroke-width=".7"/><line x1="135.0" y1="52.0" x2="133.0" y2="80.0" stroke="#8a8f96" stroke-width=".7"/><line x1="139.0" y1="52.0" x2="137.0" y2="80.0" stroke="#8a8f96" stroke-width=".7"/><line x1="143.0" y1="52.0" x2="141.0" y2="80.0" stroke="#8a8f96" stroke-width=".7"/><rect x="54.0" y="44.2" width="7.0" height="43.5" rx="1" fill="url(#steel)" stroke="#23272c" stroke-width="1.1" /><line x1="54" y1="55.1" x2="61" y2="55.1" stroke="#555" stroke-width=".6"/><line x1="54" y1="76.9" x2="61" y2="76.9" stroke="#555" stroke-width=".6"/><rect x="118.0" y="44.2" width="7.0" height="43.5" rx="1" fill="url(#steel)" stroke="#23272c" stroke-width="1.1" /><line x1="118" y1="55.1" x2="125" y2="55.1" stroke="#555" stroke-width=".6"/><line x1="118" y1="76.9" x2="125" y2="76.9" stroke="#555" stroke-width=".6"/><rect x="144.0" y="61.0" width="38.0" height="10.0" rx="0" fill="url(#chrome)" stroke="#23272c" stroke-width="1.1" /><rect x="182.0" y="55.0" width="11.0" height="22.0" rx="3" fill="url(#pu)" stroke="#23272c" stroke-width="1.1" /></svg>