<svg xmlns="http://www.w3.org/2000/svg" viewBox="0 0 240 150" stroke-linejoin="round" stroke-linecap="round"><defs>
<linearGradient id="chrome" x1="0" y1="0" x2="0" y2="1"><stop offset="0" stop-color="#f7f7f7"/><stop offset=".25" stop-color="#c9ced4"/><stop offset=".5" stop-color="#ffffff"/><stop offset=".75" stop-color="#9aa3ad"/><stop offset="1" stop-color="#5f6a75"/></linearGradient>
<linearGradient id="steel" x1="0" y1="0" x2="0" y2="1"><stop offset="0" stop-color="#d9dee3"/><stop offset=".5" stop-color="#8d98a3"/><stop offset="1" stop-color="#4d5761"/></linearGradient>
<linearGradient id="rubber" x1="0" y1="0" x2="0" y2="1"><stop offset="0" stop-color="#4a4a4a"/><stop offset=".4" stop-color="#262626"/><stop offset="1" stop-color="#0d0d0d"/></linearGradient>
<radialGradient id="rubberR" cx=".4" cy=".35" r=".8"><stop offset="0" stop-color="#5a5a5a"/><stop offset=".6" stop-color="#232323"/><stop offset="1" stop-color="#0a0a0a"/></radialGradient>
<linearGradient id="mesh" x1="0" y1="0" x2="1" y2="1"><stop offset="0" stop-color="#cfd5db"/><stop offset=".5" stop-color="#8b949d"/><stop offset="1" stop-color="#5b646d"/></linearGradient>
<linearGradient id="blue" x1="0" y1="0" x2="0" y2="1"><stop offset="0" stop-color="#7fb3ff"/><stop offset=".45" stop-color="#1f6fe0"/><stop offset="1" stop-color="#0b3a86"/></linearGradient>
<pattern id="meshpat" width="8" height="8" patternUnits="userSpaceOnUse" patternTransform="rotate(45)"><path d="M0 4 H8 M4 0 V8" stroke="#3b444d" stroke-width="1.2"/></pattern>
<filter id="sh" x="-10%" y="-10%" width="120%" height="130%"><feDropShadow dx="0" dy="3" stdDeviation="2.5" flood-color="#000" flood-opacity=".28"/></filter>
</defs><g filter="url(#sh)"><path d="M82 34 V96 A38 7 0 0 0 158 96 V34 Z" fill="url(#rubber)" stroke="#111" stroke-width="1.2"/><path d="M88 38 V94" stroke="#555" stroke-width="3" opacity=".55"/><ellipse cx="120" cy="34" rx="37" ry="7" fill="url(#steel)" stroke="#3b444d" stroke-width="1.2"/><path d="M83 96 A37 7 0 0 0 157 96" fill="none" stroke="#8d98a3" stroke-width="3"/><rect x="114" y="4" width="12" height="30" fill="url(#chrome)" stroke="#4d5761" stroke-width="1"/><line x1="115" y1="7" x2="125" y2="8.5" stroke="#6b7480" stroke-width="1"/><line x1="115" y1="11" x2="125" y2="12.5" stroke="#6b7480" stroke-width="1"/><line x1="115" y1="15" x2="125" y2="16.5" stroke="#6b7480" stroke-width="1"/><line x1="115" y1="19" x2="125" y2="20.5" stroke="#6b7480" stroke-width="1"/><line x1="115" y1="23" x2="125" y2="24.5" stroke="#6b7480" stroke-width="1"/><line x1="115" y1="27" x2="125" y2="28.5" stroke="#6b7480" stroke-width="1"/><line x1="115" y1="31" x2="125" y2="32.5" stroke="#6b7480" stroke-width="1"/><rect x="114" y="103" width="12" height="25" fill="url(#chrome)" stroke="#4d5761" stroke-width="1"/><line x1="115" y1="106" x2="125" y2="107.5" stroke="#6b7480" stroke-width="1"/><line x1="115" y1="110" x2="125" y2="111.5" stroke="#6b7480" stroke-width="1"/><line x1="115" y1="114" x2="125" y2="115.5" stroke="#6b7480" stroke-width="1"/><line x1="115" y1="118" x2="125" y2="119.5" stroke="#6b7480" stroke-width="1"/><line x1="115" y1="122" x2="125" y2="123.5" stroke="#6b7480" stroke-width="1"/><line x1="115" y1="126" x2="125" y2="127.5" stroke="#6b7480" stroke-width="1"/></g><text x="120" y="144" font-size="12" fill="#1B3160" font-family="Arial" text-anchor="middle">AT-RCM-SS — Studs both ends</text></svg>